<?xml version="1.0" encoding="UTF-8"?>
<svg width="512" height="512" viewBox="0 0 512 512" fill="none" xmlns="http://www.w3.org/2000/svg">
  <rect width="512" height="512" fill="#1a1a1a"/>
  <path d="M256 80C141.13 80 48 173.13 48 288c0 74.37 39.23 139.59 98.04 176h219.92C424.77 427.59 464 362.37 464 288c0-114.87-93.13-208-208-208zm89.38 352H166.62C126.67 406.78 96 350.04 96 288c0-88.22 71.78-160 160-160s160 71.78 160 160c0 62.04-30.67 118.78-70.62 144zM256 144l-96 96h64v128h64V240h64l-96-96z" fill="#FFD700"/>
</svg> 